Genre:Thriller
Language:English
IMDb:http://www.imdb.com/title/tt1320291/
Source:Otkritoe.more.novie.zhertvi.2010

General
Complete name :The Reef 2010 DvDRip XviD Ac3 Feel-Free
Format : AVI
Format/Info : Audio Video Interleave
File size : 945 MiB
Duration : 1h 28mn
Overall bit rate : 1 502 Kbps
Video #0
Codec ID : XVID
Codec ID/Hint : XviD
Duration : 1h 28mn
Bit rate : 1 044 Kbps
Width : 656 pixels
Height : 368 pixels
Display aspect ratio : 16:9
Frame rate : 25.000 fps
Resolution : 24 bits
Colorimetry : 4:2:0
Scan type : Progressive
Bits/(Pixel*Frame) : 0.173
Stream size : 657 MiB (70%)
Writing library : XviD 1.2.1 (UTC 2008-12-04)
Audio #1
ID : 1
Format : AC-3
Format/Info : Audio Coding 3
Codec ID : 2000
Duration : 1h 28mn
Bit rate mode : Constant
Bit rate : 448 Kbps
Channel(s) : 6 channels
Channel positions : Front: L C R, Surround: L R, LFE
Sampling rate : 48.0 KHz
Stream size : 282 MiB (30%)
Alignment : Split accross interleaves
Interleave, duration : 40 ms (1.00 video frame)
Interleave, preload duration : 500 ms

Plot:
A great white shark hunts the crew of a capsized sailboat along the Great Barrier Reef.


screens 
http://rapidhdd.com/images/700488vlcsnap-2010-11-14-09h00m23s58.png
http://www.rapidhdd.com/images/857964vlcsnap-2010-11-14-09h00m37s190.png
http://www.rapidhdd.com/images/356779vlcsnap-2010-11-14-09h01m02s189.png
http://www.rapidhdd.com/images/101949vlcsnap-2010-11-14-09h01m20s108.png
http://www.rapidhdd.com/images/993266vlcsnap-2010-11-14-09h02m25s236.png
http://www.rapidhdd.com/images/186276vlcsnap-2010-11-14-09h01m41s72.png